<?xml version="1.0" encoding="UTF-8" standalone="no"?>
<!-- Created with Inkscape (http://www.inkscape.org/) -->

<svg
   version="1.1"
   id="svg1"
   width="2666.6667"
   height="2666.6667"
   viewBox="0 0 2666.6667 2666.6667"
   sodipodi:docname="Jan-Business_team_3.eps"
   xmlns:inkscape="http://www.inkscape.org/namespaces/inkscape"
   xmlns:sodipodi="http://sodipodi.sourceforge.net/DTD/sodipodi-0.dtd"
   xmlns="http://www.w3.org/2000/svg"
   xmlns:svg="http://www.w3.org/2000/svg">
  <defs
     id="defs1" />
  <sodipodi:namedview
     id="namedview1"
     pagecolor="#ffffff"
     bordercolor="#000000"
     borderopacity="0.25"
     inkscape:showpageshadow="2"
     inkscape:pageopacity="0.0"
     inkscape:pagecheckerboard="0"
     inkscape:deskcolor="#d1d1d1">
    <inkscape:page
       x="0"
       y="0"
       inkscape:label="1"
       id="page1"
       width="2666.6667"
       height="2666.6667"
       margin="0"
       bleed="0" />
  </sodipodi:namedview>
  <g
     id="g1"
     inkscape:groupmode="layer"
     inkscape:label="1">
    <g
       id="group-R5">
      <path
         id="path2"
         d="M 0,0 H 20000 V 20000 H 0 Z"
         style="fill:#ffffff;fill-opacity:1;fill-rule:nonzero;stroke:none"
         transform="matrix(0.13333333,0,0,-0.13333333,0,2666.6667)" />
      <path
         id="path3"
         d="m 17576.9,7597.9 c -174.3,0 -336,54 -469.2,146.3 27.8,27.1 55.3,55.1 81.8,83.4 l -18.2,17.1 c -27.3,-29.1 -55.6,-57.9 -84.2,-85.7 -203.4,150.2 -335.2,391.6 -335.2,663.8 0,455.6 369.4,825 825,825 455.6,0 824.9,-369.4 824.9,-825 0,-455.6 -369.3,-824.9 -824.9,-824.9 m -244,436 c -25.3,-32.6 -51.7,-65 -78.6,-96.5 l 19,-16.2 c 27.1,31.8 53.8,64.5 79.3,97.4 l -19.7,15.3 m 143.2,203.5 c -22.1,-34.8 -45.4,-69.6 -69.2,-103.4 l 20.4,-14.4 c 24,34.1 47.5,69.3 69.9,104.4 l -21.1,13.4 m 123.4,216.2 c -18.8,-36.9 -38.7,-73.7 -59.1,-109.5 l 21.6,-12.5 c 20.7,36.2 40.8,73.4 59.8,110.7 l -22.3,11.3 m 102.6,227 c -15.2,-38.3 -31.5,-76.9 -48.6,-114.7 l 22.8,-10.3 c 17.2,38.2 33.7,77.1 49.1,115.8 l -23.3,9.2 m 80.5,235.6 c -11.5,-39.7 -24.1,-79.6 -37.4,-118.6 l 23.7,-8.1 c 13.4,39.4 26.2,79.7 37.8,119.7 l -24.1,7 m 57.8,241.8 c -7.7,-40.6 -16.4,-81.5 -26,-121.6 l 24.3,-5.8 c 9.7,40.5 18.5,81.8 26.3,122.8 l -24.6,4.6"
         style="fill:#f5f5ff;fill-opacity:1;fill-rule:nonzero;stroke:none"
         transform="matrix(0.13333333,0,0,-0.13333333,0,2666.6667)" />
      <path
         id="path4"
         d="m 4001.65,12922.6 c -695.08,0 -1258.53,563.5 -1258.53,1258.5 0,695.1 563.45,1258.6 1258.53,1258.6 525.42,0 975.64,-322 1164.12,-779.4 H 4520.5 c -164.87,0 -299,-134.2 -299,-299 v -1419.6 c -71.4,-12.6 -144.84,-19.1 -219.85,-19.1"
         style="fill:#f5f5ff;fill-opacity:1;fill-rule:nonzero;stroke:none"
         transform="matrix(0.13333333,0,0,-0.13333333,0,2666.6667)" />
      <path
         id="path5"
         d="m 8354.91,15390.9 c -263.83,0 -512.57,160.2 -612.69,421.3 -129.76,338.3 39.31,717.7 377.62,847.5 77.27,29.6 156.7,43.7 234.8,43.7 263.83,0 512.58,-160.3 612.7,-421.3 129.75,-338.4 -39.31,-717.8 -377.63,-847.5 -77.26,-29.7 -156.71,-43.7 -234.8,-43.7"
         style="fill:#f5f5ff;fill-opacity:1;fill-rule:nonzero;stroke:none"
         transform="matrix(0.13333333,0,0,-0.13333333,0,2666.6667)" />
      <path
         id="path6"
         d="m 7590.41,17256.1 c -39.83,9.4 -80.69,15.7 -121.45,18.6 l 1.77,24.9 c 42.1,-3 84.29,-9.4 125.43,-19.2 z m -365.31,-3.7 -6.25,24.2 c 40.97,10.6 83.03,17.9 125,21.7 l 2.28,-24.9 c -40.64,-3.7 -81.36,-10.8 -121.03,-21 z m 591.63,-89.9 c -34.8,21.5 -71.61,40.3 -109.41,55.9 l 9.56,23.1 c 39.02,-16.1 77.03,-35.6 112.97,-57.7 z m -816.05,-8.3 -13.55,21.1 c 35.39,22.8 73.01,42.9 111.81,59.9 l 10.01,-22.9 c -37.58,-16.5 -74,-36 -108.27,-58.1 z m 1001.22,-151.8 c -26.18,31.3 -55.15,60.8 -86.1,87.5 l 16.35,18.9 c 31.97,-27.6 61.89,-58 88.93,-90.4 z m -1182.93,-12.2 -19.52,15.6 c 26.4,33 55.66,64.1 86.96,92.3 l 16.75,-18.5 c -30.3,-27.4 -58.63,-57.5 -84.19,-89.4 z m 1307.65,-198.5 c -15,38.2 -33.12,75.3 -53.85,110.4 l 21.51,12.7 c 21.42,-36.2 40.12,-74.6 55.61,-114 z m -1428.11,-14.7 -23.45,8.6 c 14.64,39.6 32.6,78.3 53.36,115.1 l 21.77,-12.3 c -20.11,-35.6 -37.5,-73.1 -51.68,-111.4 z m 1465.13,-109 c -8.35,39.8 -20.04,79.5 -34.75,117.8 l 23.34,9 c 15.19,-39.6 27.26,-80.6 35.88,-121.7 z m -1512.27,-131.4 -24.99,0.8 c 1.36,42.2 6.19,84.6 14.34,126.1 l 24.53,-4.8 c -7.89,-40.2 -12.56,-81.2 -13.88,-122.1 z m 1548,-116.2 -24.82,2.9 c 3.47,29.5 5.23,59.4 5.23,89 0,11.2 -0.25,22.6 -0.75,33.8 l 24.97,1.1 c 0.52,-11.5 0.78,-23.3 0.78,-34.9 0,-30.6 -1.82,-61.5 -5.41,-91.9 z m -1540.3,-133.8 c -12.15,40.6 -21.07,82.3 -26.52,124.1 l 24.79,3.2 c 5.28,-40.5 13.91,-80.9 25.67,-120.1 z m 1470.88,-109.4 -22.64,10.6 c 17.37,37.1 31.86,75.8 43.08,115.1 l 24.04,-6.9 c -11.58,-40.6 -26.55,-80.5 -44.48,-118.8 z M 6769.1,16058.9 c -24.17,34.5 -45.75,71.3 -64.14,109.4 l 22.52,10.9 c 17.8,-36.9 38.69,-72.5 62.1,-106 z m 1218.39,-90.6 -18.14,17.2 c 28.11,29.6 54.06,61.8 77.12,95.6 l 20.65,-14.1 c -23.81,-34.9 -50.61,-68.1 -79.63,-98.7 z m -1041.84,-90.4 c -33.98,25.1 -66.15,53.1 -95.6,83.3 l 17.9,17.5 c 28.51,-29.3 59.66,-56.4 92.57,-80.7 z m 840.42,-62.5 -11.71,22 c 36.19,19.2 71.01,41.5 103.51,66.2 l 15.11,-20 c -33.56,-25.4 -69.53,-48.4 -106.91,-68.2 z m -615.68,-53.5 c -40.13,13.2 -79.5,29.6 -117.03,49 l 11.47,22.2 c 36.34,-18.7 74.47,-34.7 113.33,-47.4 z m 376.28,-28.1 -4.18,24.7 c 40.17,6.8 80.23,16.9 119.07,30.2 l 8.07,-23.7 c -40.11,-13.6 -81.48,-24.1 -122.96,-31.2 z m -131.18,-11 c -40.57,0 -81.54,3.2 -121.75,9.5 l 3.88,24.7 c 38.92,-6.1 78.6,-9.2 117.91,-9.2 h 4.58 l 0.15,-25 h -4.77"
         style="fill:#9192ff;fill-opacity:1;fill-rule:nonzero;stroke:none"
         transform="matrix(0.13333333,0,0,-0.13333333,0,2666.6667)" />
      <path
         id="path7"
         d="m 15353.9,12292.7 c -36.3,1.4 -73.2,2.2 -109.5,2.2 -5,0 -9.9,0 -14.9,0 l -0.1,25 c 5,0 10.1,0 15,0 36.7,0 73.9,-0.8 110.5,-2.3 l -1,-24.9 m -372.7,-10.8 -2.5,24.9 c 41.4,4.1 83.5,7.3 125.2,9.5 l 1.3,-25 c -41.3,-2.2 -83,-5.3 -124,-9.4 m 620.4,-11 c -40.9,5.6 -82.5,10.2 -123.6,13.8 l 2.2,24.9 c 41.5,-3.6 83.5,-8.3 124.7,-13.9 l -3.3,-24.8 m -866.4,-25 -4.8,24.5 c 40.9,8 82.5,15.1 123.7,21.1 l 3.7,-24.7 c -40.9,-6 -82.1,-13 -122.6,-20.9 m 1110.9,-19.8 c -40.1,9.3 -81.1,17.8 -121.7,25.3 l 4.5,24.6 c 41,-7.5 82.4,-16.1 122.9,-25.6 l -5.7,-24.3 m -1352.4,-39.4 -7.1,24 c 39.9,11.8 80.6,22.8 121.2,32.7 l 5.9,-24.2 c -40.1,-9.9 -80.5,-20.8 -120,-32.5 m 1591.7,-28.5 c -39.2,13.2 -79.2,25.5 -118.8,36.8 l 6.8,24 c 40,-11.3 80.4,-23.8 119.9,-37.1 l -7.9,-23.7 m -1826.6,-53.2 -9.3,23.2 c 38.7,15.5 78.3,30.4 117.6,44.1 l 8.2,-23.7 c -38.9,-13.5 -78.1,-28.2 -116.5,-43.6 m 2058.8,-37.1 c -37.8,16.8 -76.5,32.9 -115,47.9 l 9,23.3 c 38.9,-15.2 78,-31.4 116.1,-48.4 l -10.1,-22.8 m -2284.3,-66.3 -11.5,22.2 c 36.9,19.1 74.8,37.5 112.6,54.9 l 10.4,-22.7 c -37.4,-17.2 -75,-35.5 -111.5,-54.4 m 2506.8,-45.7 c -36,20.3 -73,40 -109.9,58.6 l 11.2,22.3 c 37.3,-18.7 74.6,-38.6 111,-59.1 l -12.3,-21.8 m -2721.8,-78.5 -13.6,21 c 35.1,22.5 71.1,44.5 107.1,65.3 l 12.5,-21.7 c -35.7,-20.6 -71.3,-42.4 -106,-64.6 m 2932.6,-53.8 c -33.9,23.6 -68.9,46.7 -103.8,68.6 l 13.3,21.2 c 35.2,-22.1 70.5,-45.4 104.8,-69.3 l -14.3,-20.5 m -3135.2,-90.2 -15.4,19.7 c 32.8,25.7 66.6,50.9 100.5,75 l 14.5,-20.3 c -33.6,-23.9 -67.1,-49 -99.6,-74.4 m 3332.6,-61.3 c -31.4,26.6 -64,52.9 -96.9,78.1 l 15.2,19.8 c 33.2,-25.4 66.1,-51.9 97.9,-78.8 l -16.2,-19.1 m -3520.8,-101 -17.2,18.1 c 30.2,28.7 61.6,57 93.1,84.2 l 16.3,-19 c -31.2,-26.9 -62.2,-54.9 -92.2,-83.3 m 3703.1,-68.2 c -28.9,29.5 -58.9,58.7 -89.1,86.8 l 17,18.3 c 30.5,-28.3 60.7,-57.8 90,-87.6 l -17.9,-17.5 m -3875.5,-111.1 -18.8,16.4 c 27.5,31.4 56,62.6 84.9,92.6 l 18,-17.4 c -28.6,-29.7 -56.9,-60.5 -84.1,-91.6 m 4041.1,-74.3 c -26,32 -53.1,63.9 -80.6,94.7 l 18.7,16.6 c 27.7,-31.1 55.1,-63.2 81.3,-95.5 l -19.4,-15.8 m -4196,-120.4 -20.2,14.6 c 24.3,33.7 49.9,67.4 75.8,100.1 l 19.6,-15.6 c -25.7,-32.3 -51,-65.7 -75.2,-99.1 m 4343.5,-79.6 c -22.9,34.3 -46.9,68.5 -71.4,101.7 l 20.1,14.9 c 24.8,-33.6 49,-68.1 72.1,-102.7 l -20.8,-13.9 m -4479.5,-128.9 -21.5,12.6 c 21.1,36 43.4,71.9 66.2,106.9 l 20.9,-13.7 c -22.6,-34.6 -44.7,-70.2 -65.6,-105.8 m 4607.5,-83.9 c -19.5,36.2 -40.2,72.5 -61.5,107.9 l 21.5,12.9 c 21.5,-35.8 42.4,-72.4 62,-108.9 l -22,-11.9 m -4723.3,-136.6 -22.6,10.6 c 17.6,37.7 36.4,75.6 55.8,112.7 l 22.1,-11.7 c -19.2,-36.7 -37.8,-74.2 -55.3,-111.6 m 4830.7,-87.2 c -16,37.9 -33.2,75.9 -51.1,113.2 l 22.6,10.8 c 18,-37.6 35.3,-76 51.5,-114.2 l -23,-9.8 m -4925.2,-143.3 -23.5,8.3 c 14,39.4 29.1,78.9 44.9,117.5 l 23.1,-9.4 c -15.6,-38.3 -30.6,-77.4 -44.5,-116.4 m 5011,-89.7 c -12.5,39.4 -26,79 -40.2,117.7 l 23.4,8.6 c 14.4,-39 28.1,-79 40.6,-118.8 l -23.8,-7.5 m -5083.1,-148.6 -24.2,6.1 c 10.1,40.4 21.4,81.1 33.5,121 l 23.9,-7.3 c -11.9,-39.5 -23.1,-79.8 -33.2,-119.8 m 5146.5,-91.8 c -8.6,40.3 -18.3,80.9 -28.9,120.9 l 24.2,6.4 c 10.6,-40.4 20.4,-81.4 29.1,-122.1 l -24.4,-5.2 m -5195.7,-152 -24.7,3.8 c 6.3,41.2 13.7,82.8 21.9,123.6 l 24.6,-4.9 c -8.2,-40.4 -15.5,-81.6 -21.8,-122.5 m 5236.1,-93.4 c -4.8,41 -10.6,82.4 -17.3,123.2 l 24.7,4 c 6.7,-41.1 12.6,-83 17.4,-124.3 l -24.8,-2.9 m -5262.1,-153.8 -24.9,1.4 c 2.4,41.7 5.8,83.8 10.2,125.1 l 24.8,-2.6 c -4.3,-40.9 -7.7,-82.6 -10.1,-123.9 m 5279.3,-94.2 c -0.9,41.3 -2.8,83.1 -5.7,124.2 l 24.9,1.8 c 2.9,-41.5 4.9,-83.7 5.8,-125.4 l -25,-0.6 m -5307.1,-155.4 c -1.1,31 -1.7,62.6 -1.7,93.9 0,10.6 0.1,21.1 0.2,31.7 l 25,-0.3 c -0.1,-10.5 -0.2,-20.9 -0.2,-31.4 0,-31 0.6,-62.3 1.6,-93 l -24.9,-0.9 m 5329.9,-31.5 -24.9,1.1 c 1.9,41.1 2.8,82.9 2.8,124.3 h 25 c 0,-41.8 -0.9,-84 -2.9,-125.4 m -5309.6,-218.7 c -5.3,41.2 -9.7,83.2 -13.1,124.9 l 24.9,2 c 3.4,-41.2 7.7,-82.9 13,-123.7 l -24.8,-3.2 m 5286.3,-31.3 -24.7,3.5 c 5.7,40.8 10.6,82.3 14.4,123.6 l 24.9,-2.4 c -3.9,-41.6 -8.8,-83.5 -14.6,-124.7 m -5242.5,-215.8 c -9.2,40.5 -17.5,81.9 -24.8,123.1 l 24.6,4.3 c 7.2,-40.8 15.5,-81.8 24.6,-121.9 l -24.4,-5.5 m 5195.8,-30.8 -24.3,5.8 c 9.6,40.1 18.3,81 26,121.6 l 24.6,-4.6 c -7.8,-41 -16.6,-82.3 -26.3,-122.8 m -5128.9,-211.1 c -13,39.6 -25.2,80.1 -36.3,120.1 l 24.1,6.7 c 11,-39.7 23.1,-79.7 36,-119 l -23.8,-7.8 m 5059.1,-30 -23.7,8.1 c 13.3,39 25.9,78.9 37.4,118.6 l 24.1,-7 c -11.6,-40 -24.4,-80.3 -37.8,-119.7 m -4969.6,-204.3 c -16.7,38.2 -32.6,77.2 -47.5,116 l 23.4,8.9 c 14.7,-38.4 30.5,-77.1 47,-114.8 l -22.9,-10.1 m 4877,-29.6 -22.8,10.3 c 17.1,37.8 33.4,76.4 48.6,114.7 l 23.3,-9.2 c -15.4,-38.7 -31.9,-77.6 -49.1,-115.8 m -4765.9,-194.9 c -20.2,36.4 -39.8,73.7 -58.2,111 l 22.4,11 c 18.2,-36.9 37.6,-73.9 57.6,-109.9 l -21.8,-12.1 m 4651.6,-29.1 -21.6,12.5 c 20.4,35.8 40.3,72.6 59.1,109.5 l 22.3,-11.3 c -19,-37.3 -39.1,-74.5 -59.8,-110.7 m -4519.8,-184.2 c -23.5,34.3 -46.5,69.6 -68.4,105.1 l 21.2,13.1 c 21.7,-35.1 44.5,-70.1 67.8,-104.1 l -20.6,-14.1 m 4385.1,-27.8 -20.4,14.4 c 23.8,33.8 47.1,68.6 69.2,103.4 l 21.1,-13.4 c -22.4,-35.1 -45.9,-70.3 -69.9,-104.4 m -4233.9,-172.3 c -26.6,32 -52.9,65.1 -78,98.2 l 20,15.1 c 24.8,-32.8 50.8,-65.6 77.3,-97.3 l -19.3,-16 m 4079.9,-26.1 -19,16.2 c 26.9,31.5 53.3,63.9 78.6,96.5 l 19.7,-15.3 c -25.5,-32.9 -52.2,-65.6 -79.3,-97.4 m -3910.5,-159.1 c -29.5,29.5 -58.8,60 -86.8,90.6 l 18.4,16.9 c 27.8,-30.4 56.8,-60.6 86.1,-89.8 l -17.7,-17.7 m 3738.7,-24 -17.4,18 c 29.6,28.7 58.9,58.5 87.2,88.6 l 18.2,-17.1 c -28.5,-30.4 -58.1,-60.5 -88,-89.5 m -3552.6,-144.6 c -32.2,26.6 -64.2,54.2 -95,82.2 l 16.8,18.5 c 30.5,-27.7 62.2,-55.1 94.1,-81.4 l -15.9,-19.3 m 3364.5,-21.5 -15.6,19.5 c 32.1,25.8 64.1,52.8 95,80.1 l 16.6,-18.7 c -31.3,-27.6 -63.6,-54.8 -96,-80.9 M 13750,7443 c -34.4,23.3 -68.9,47.9 -102.3,72.9 l 15,20 c 33.1,-24.8 67.2,-49.1 101.3,-72.2 l -14,-20.7 m 2960.7,-18.8 -13.8,20.9 c 34.6,22.8 68.9,46.6 102.1,70.8 l 14.8,-20.2 c -33.6,-24.4 -68.2,-48.5 -103.1,-71.5 M 13964.4,7312 c -36.5,20 -73.1,41.2 -108.7,63 l 13,21.3 c 35.3,-21.6 71.6,-42.6 107.8,-62.4 l -12.1,-21.9 m 2530.7,-15.8 -11.7,22.1 c 36.4,19.4 72.8,39.8 108.2,60.9 l 12.8,-21.5 c -35.8,-21.3 -72.5,-41.9 -109.3,-61.5 m -2304.7,-94.5 c -38.4,16.5 -76.8,34.2 -114.3,52.5 l 11,22.4 c 37.1,-18.1 75.2,-35.6 113.2,-51.9 l -9.9,-23 m 2078.3,-12.5 -9.6,23.1 c 37.9,15.7 76,32.7 113.4,50.3 l 10.7,-22.6 c -37.7,-17.8 -76.3,-34.9 -114.5,-50.8 M 14426,7113.3 c -39.7,12.8 -79.7,26.7 -118.9,41.4 l 8.8,23.4 c 38.8,-14.5 78.5,-28.3 117.7,-41 l -7.6,-23.8 m 1606.9,-9.4 -7.4,23.9 c 39.5,12.2 79.2,25.5 117.9,39.5 l 8.6,-23.5 c -39.2,-14.2 -79.2,-27.6 -119.1,-39.9 m -1364.6,-56.1 c -40.7,8.9 -81.8,19 -122,29.9 l 6.6,24.1 c 39.8,-10.8 80.4,-20.7 120.7,-29.6 l -5.3,-24.4 m 1121.6,-6.6 -5.1,24.5 c 40.5,8.4 81.2,17.9 121.1,28.2 l 6.2,-24.2 c -40.2,-10.4 -81.3,-20 -122.2,-28.5 m -874.2,-35.7 c -41.3,5 -83.1,11.2 -124.2,18.2 l 4.2,24.6 c 40.8,-6.9 82.1,-13 123,-18 l -3,-24.8 m 626.3,-3.7 -2.8,24.8 c 41.1,4.6 82.5,10.2 123.3,16.7 l 3.9,-24.7 c -41.1,-6.5 -83,-12.2 -124.4,-16.8 m -376.1,-15.3 c -41.6,1.2 -83.8,3.4 -125.3,6.6 l 1.9,24.9 c 41.1,-3.1 82.9,-5.3 124.2,-6.5 l -0.8,-25 m 125.6,-0.7 -0.4,25 c 41.4,0.7 83.2,2.4 124.2,5 l 1.6,-24.9 c -41.4,-2.7 -83.6,-4.4 -125.4,-5.1"
         style="fill:#9192ff;fill-opacity:1;fill-rule:nonzero;stroke:none"
         transform="matrix(0.13333333,0,0,-0.13333333,0,2666.6667)" />
      <path
         id="path8"
         d="m 4588.03,13390.3 c -40.95,3.6 -82.62,5.9 -123.86,6.6 l 0.43,25 c 41.83,-0.8 84.1,-3 125.63,-6.7 z m -371.45,-6.6 -3.1,24.8 c 41.36,5.1 83.52,8.9 125.31,11.1 l 1.33,-24.9 c -41.2,-2.3 -82.76,-5.9 -123.54,-11 z m 616.18,-32.8 c -40.06,9.4 -80.99,17.5 -121.65,24.1 l 3.97,24.7 c 41.25,-6.7 82.78,-14.9 123.43,-24.5 z m -859.31,-15.6 -6.63,24.1 c 40.24,11.1 81.43,20.8 122.45,29 l 4.88,-24.5 c -40.43,-8.1 -81.04,-17.7 -120.7,-28.6 z m 1095.99,-58.7 c -38.33,15.2 -77.72,29.1 -117.07,41.4 l 7.48,23.9 c 39.93,-12.5 79.89,-26.7 118.78,-42 z m -1329.5,-24 -10.03,22.8 c 38.22,16.8 77.53,32.3 116.87,46.3 l 8.35,-23.6 c -38.77,-13.7 -77.53,-29 -115.19,-45.5 z m 1553.11,-83.6 c -35.76,20.5 -72.73,40 -109.85,57.8 l 10.84,22.6 c 37.66,-18.2 75.16,-37.9 111.44,-58.7 z m -1772.31,-31.9 -13.21,21.3 c 35.46,22 72.17,43.1 109.1,62.5 l 11.65,-22.1 c -36.4,-19.2 -72.59,-39.9 -107.54,-61.7 z m 1978.14,-106.5 c -32.47,25.4 -66.26,49.9 -100.43,72.9 l 13.95,20.7 c 34.66,-23.3 68.94,-48.2 101.88,-73.9 z m -2178.73,-39 -16.09,19.1 c 31.95,26.9 65.29,52.9 99.11,77.5 l 14.69,-20.3 c -33.34,-24.1 -66.21,-49.9 -97.71,-76.3 z m 2362.71,-127.3 c -28.51,29.7 -58.47,58.8 -89.02,86.4 l 16.77,18.6 c 30.99,-28.1 61.37,-57.6 90.29,-87.7 z m -2540.64,-45.4 -18.64,16.6 c 27.83,31.2 57.14,61.7 87.12,90.8 l 17.42,-17.9 c -29.56,-28.7 -58.46,-58.8 -85.9,-89.5 z m 2699.09,-145.3 c -24,33.5 -49.51,66.5 -75.82,98.2 l 19.23,15.9 c 26.69,-32.1 52.57,-65.6 76.9,-99.5 z m -2850.7,-51 -20.83,13.8 c 23.11,34.8 47.79,69.2 73.35,102.3 l 19.79,-15.3 c -25.21,-32.6 -49.54,-66.5 -72.31,-100.8 z m 2980.3,-160.2 c -18.97,36.6 -39.49,72.9 -61.02,107.9 l 21.31,13.1 c 21.83,-35.6 42.66,-72.4 61.9,-109.5 z m -3102.39,-55.8 -22.59,10.7 c 17.89,37.7 37.4,75.4 57.99,111.8 l 21.77,-12.3 c -20.3,-35.9 -39.54,-73 -57.17,-110.2 z M 6068.89,12235 c -13.51,38.8 -28.62,77.7 -44.89,115.5 l 22.96,9.9 c 16.51,-38.4 31.83,-77.8 45.54,-117.2 z m -3290.21,-59.8 -23.9,7.4 c 12.29,40 26.2,80 41.33,119 l 23.3,-9.1 c -14.91,-38.4 -28.62,-77.9 -40.73,-117.3 z m 3354.52,-179.6 c -7.78,40.4 -17.15,81.1 -27.83,120.9 l 24.14,6.4 c 10.84,-40.3 20.34,-81.6 28.24,-122.6 z m -3410.04,-62 -24.71,3.8 c 6.41,41.4 14.4,82.9 23.75,123.6 l 24.36,-5.6 c -9.21,-40.1 -17.08,-81.1 -23.4,-121.8 z m 3439.39,-184.2 c -1.96,41.3 -5.41,82.9 -10.27,123.7 l 24.82,2.9 c 4.93,-41.4 8.44,-83.5 10.42,-125.4 z m -3459.81,-62.8 -25,0.3 c 0.49,41.8 2.47,84.1 5.9,125.6 l 24.91,-2 c -3.38,-41 -5.33,-82.7 -5.81,-123.9 z m 3482.34,-146.1 -24.94,1.7 c 2.9,41 4.37,82.7 4.37,124 h 25 c 0,-41.8 -1.49,-84.1 -4.43,-125.7 z m -3492.47,-104.7 c -5.42,41.4 -9.42,83.5 -11.89,125.3 l 24.96,1.4 c 2.43,-41.1 6.37,-82.7 11.71,-123.4 z m 3456.84,-144.3 -24.44,5.3 c 8.74,40.2 16.14,81.3 21.97,122.1 l 24.75,-3.5 c -5.92,-41.4 -13.42,-83.1 -22.28,-123.9 z m -3406.33,-102.1 c -11.32,40.3 -21.31,81.4 -29.7,122.3 l 24.5,5 c 8.26,-40.3 18.1,-80.8 29.26,-120.5 z m 3335.33,-139.1 -23.41,8.7 c 14.45,38.6 27.67,78.2 39.29,117.7 l 23.98,-7.1 c -11.79,-40 -25.2,-80.2 -39.86,-119.3 z M 2828.5,10953 c -16.98,38.2 -32.77,77.4 -46.93,116.6 l 23.51,8.5 c 13.96,-38.6 29.52,-77.3 46.26,-114.9 z m 3144.85,-131.5 -21.9,12 c 19.87,36.2 38.66,73.5 55.85,110.9 l 22.72,-10.4 c -17.44,-38 -36.5,-75.9 -56.67,-112.5 z m -3026.46,-90.1 c -22.26,35.3 -43.52,71.9 -63.18,108.7 l 22.05,11.8 c 19.38,-36.3 40.34,-72.4 62.29,-107.2 z m 2889.75,-121.2 -19.97,15.1 c 24.82,32.9 48.75,67.1 71.12,101.7 l 20.98,-13.6 c -22.69,-35.1 -46.96,-69.8 -72.13,-103.2 z m -2740.86,-81.4 c -27.1,31.8 -53.36,65 -78.07,98.6 l 20.15,14.8 c 24.35,-33.1 50.25,-65.9 76.96,-97.3 z m 2575.5,-108.2 -17.62,17.8 c 29.22,29 57.77,59.5 84.84,90.5 l 18.83,-16.4 c -27.45,-31.5 -56.41,-62.4 -86.05,-91.9 z m -2399.26,-71.3 c -31.3,27.6 -62.02,56.8 -91.33,86.6 l 17.84,17.5 c 28.89,-29.4 59.18,-58.1 90.03,-85.4 z m 2208.71,-92.8 -14.92,20.1 c 33.04,24.6 65.61,50.7 96.8,77.5 l 16.32,-18.9 c -31.64,-27.3 -64.68,-53.7 -98.2,-78.7 z m -2008.7,-59.8 c -34.93,22.9 -69.5,47.4 -102.74,72.7 l 15.16,19.9 c 32.78,-25 66.86,-49.1 101.29,-71.7 z m 1796.81,-75.4 -11.9,21.9 c 36.14,19.6 72.07,40.8 106.81,63 l 13.45,-21.1 c -35.23,-22.5 -71.69,-44 -108.36,-63.8 z m -1576.96,-47.2 c -37.86,17.7 -75.59,37 -112.14,57.3 l 12.18,21.9 c 36.02,-20.1 73.21,-39.1 110.53,-56.5 z m 1348.03,-56.3 -8.64,23.4 c 38.57,14.2 77.15,30 114.65,47 l 10.31,-22.8 c -38.06,-17.2 -77.19,-33.3 -116.32,-47.6 z m -1112.75,-33.4 c -40.07,12 -80.2,25.7 -119.28,40.6 l 8.91,23.4 c 38.52,-14.7 78.07,-28.2 117.57,-40.1 z m 871.06,-36.2 -5.16,24.4 c 40.27,8.5 80.75,18.6 120.34,30 l 6.92,-24 c -40.17,-11.6 -81.25,-21.8 -122.1,-30.4 z m -625.62,-18.7 c -41.42,6.2 -83.04,13.9 -123.71,23 l 5.46,24.4 c 40.08,-9 81.11,-16.6 121.93,-22.7 z m 376.49,-15.5 -1.62,24.9 c 41.07,2.7 82.59,6.9 123.4,12.5 l 3.39,-24.8 c -41.39,-5.7 -83.5,-9.9 -125.17,-12.6 z m -125.78,-3.7 c -41.96,0.2 -84.25,2 -125.7,5.1 l 1.92,25 c 40.86,-3.2 82.55,-4.9 123.92,-5.1 l -0.14,-25"
         style="fill:#9192ff;fill-opacity:1;fill-rule:nonzero;stroke:none"
         transform="matrix(0.13333333,0,0,-0.13333333,0,2666.6667)" />
      <path
         id="path9"
         d="m 11464.7,16700.5 c -222.3,0 -403.1,-180.8 -403.1,-403.1 0,-222.2 180.8,-403.1 403.1,-403.1 222.3,0 403.1,180.9 403.1,403.1 0,222.3 -180.8,403.1 -403.1,403.1 z m 0,-824.9 c -232.6,0 -421.9,189.2 -421.9,421.8 0,232.6 189.3,421.9 421.9,421.9 232.6,0 421.8,-189.3 421.8,-421.9 0,-232.6 -189.2,-421.8 -421.8,-421.8"
         style="fill:#9192ff;fill-opacity:1;fill-rule:nonzero;stroke:none"
         transform="matrix(0.13333333,0,0,-0.13333333,0,2666.6667)" />
      <path
         id="path10"
         d="M 15853.7,14361.3 V 6759.5 c 0,-158.2 -128.2,-286.5 -286.2,-286.5 h -11047 c -158.25,0 -286.5,128.3 -286.5,286.5 v 7601.8 c 0,158.2 128.25,286.5 286.5,286.5 h 11047 c 158,0 286.2,-128.3 286.2,-286.5"
         style="fill:#ffffff;fill-opacity:1;fill-rule:nonzero;stroke:none"
         transform="matrix(0.13333333,0,0,-0.13333333,0,2666.6667)" />
      <path
         id="path11"
         d="m 4520.5,14635.3 c -151.08,0 -274,-123 -274,-274 V 6759.5 c 0,-151.1 122.92,-274 274,-274 h 11047 c 150.9,0 273.8,122.9 273.8,274 v 7601.8 c 0,151 -122.9,274 -273.8,274 h -11047 m 11047,-8174.8 h -11047 c -164.87,0 -299,134.1 -299,299 v 7601.8 c 0,164.8 134.13,299 299,299 h 11047 c 164.7,0 298.7,-134.2 298.7,-299 V 6759.5 c 0,-164.9 -134,-299 -298.7,-299"
         style="fill:#9192ff;fill-opacity:1;fill-rule:nonzero;stroke:none"
         transform="matrix(0.13333333,0,0,-0.13333333,0,2666.6667)" />
      <path
         id="path12"
         d="m 15853.8,14361.3 v -451 H 4234 v 451 c 0,158.2 128.25,286.5 286.5,286.5 h 11047 c 158,0 286.3,-128.3 286.3,-286.5"
         style="fill:#ffffff;fill-opacity:1;fill-rule:nonzero;stroke:none"
         transform="matrix(0.13333333,0,0,-0.13333333,0,2666.6667)" />
      <path
         id="path13"
         d="m 4246.5,13922.8 h 11594.8 v 438.5 c 0,151 -122.9,274 -273.8,274 h -11047 c -151.09,0 -274,-123 -274,-274 z m 11619.8,-25 H 4221.5 v 463.5 c 0,164.8 134.13,299 299,299 h 11047 c 164.7,0 298.8,-134.2 298.8,-299 v -463.5"
         style="fill:#9192ff;fill-opacity:1;fill-rule:nonzero;stroke:none"
         transform="matrix(0.13333333,0,0,-0.13333333,0,2666.6667)" />
      <path
         id="path14"
         d="m 5012.5,14279 c 0,-73.6 -59.69,-133.3 -133.33,-133.3 -73.64,0 -133.34,59.7 -133.34,133.3 0,73.6 59.7,133.3 133.34,133.3 73.64,0 133.33,-59.7 133.33,-133.3"
         style="fill:#3335cf;fill-opacity:1;fill-rule:nonzero;stroke:none"
         transform="matrix(0.13333333,0,0,-0.13333333,0,2666.6667)" />
      <path
         id="path15"
         d="m 5387.5,14412.3 c -73.53,0 -133.34,-59.8 -133.34,-133.3 0,-73.5 59.81,-133.3 133.34,-133.3 73.53,0 133.34,59.8 133.34,133.3 0,73.5 -59.81,133.3 -133.34,133.3"
         style="fill:#3335cf;fill-opacity:1;fill-rule:nonzero;stroke:none"
         transform="matrix(0.13333333,0,0,-0.13333333,0,2666.6667)" />
      <path
         id="path16"
         d="m 5895.83,14387.3 c -59.73,0 -108.33,-48.6 -108.33,-108.3 0,-59.7 48.6,-108.3 108.33,-108.3 59.74,0 108.34,48.6 108.34,108.3 0,59.7 -48.6,108.3 -108.34,108.3 z m 0,-241.6 c -73.52,0 -133.33,59.8 -133.33,133.3 0,73.5 59.81,133.3 133.33,133.3 73.53,0 133.34,-59.8 133.34,-133.3 0,-73.5 -59.81,-133.3 -133.34,-133.3"
         style="fill:#9192ff;fill-opacity:1;fill-rule:nonzero;stroke:none"
         transform="matrix(0.13333333,0,0,-0.13333333,0,2666.6667)" />
      <path
         id="path17"
         d="m 6698.44,14402.4 c -68.06,0 -123.44,-55.3 -123.44,-123.4 0,-68.1 55.38,-123.4 123.44,-123.4 h 2478.12 c 68.06,0 123.44,55.3 123.44,123.4 0,68.1 -55.38,123.4 -123.44,123.4 z m 2478.12,-271.8 H 6698.44 c -81.85,0 -148.44,66.6 -148.44,148.4 0,81.9 66.59,148.4 148.44,148.4 h 2478.12 c 81.85,0 148.44,-66.5 148.44,-148.4 0,-81.8 -66.59,-148.4 -148.44,-148.4"
         style="fill:#9192ff;fill-opacity:1;fill-rule:nonzero;stroke:none"
         transform="matrix(0.13333333,0,0,-0.13333333,0,2666.6667)" />
      <path
         id="path18"
         d="m 12327.9,10372.8 c 0,-1197 -970.2,-2167.5 -2167.2,-2167.5 -1197.03,0 -2167.53,970.5 -2167.53,2167.5 0,1123 854.24,2046.5 1948.24,2156.5 l 72.29,-711.3 c -733.03,-73.7 -1305.28,-692.7 -1305.28,-1445.2 0,-802.3 650.25,-1452.5 1452.28,-1452.5 802,0 1452,650.2 1452,1452.5 0,140 -19.8,275.2 -56.8,403.2 l 687.3,198.5 c 55.2,-191 84.7,-393 84.7,-601.7"
         style="fill:#9192ff;fill-opacity:1;fill-rule:nonzero;stroke:none"
         transform="matrix(0.13333333,0,0,-0.13333333,0,2666.6667)" />
      <path
         id="path19"
         d="m 11910.6,10372.8 c 0,-966.5 -783.5,-1750 -1750,-1750 -966.5,0 -1750,783.5 -1750,1750 0,966.5 783.5,1750 1750,1750 966.5,0 1750,-783.5 1750,-1750"
         style="fill:#ffffff;fill-opacity:1;fill-rule:nonzero;stroke:none"
         transform="matrix(0.13333333,0,0,-0.13333333,0,2666.6667)" />
      <path
         id="path20"
         d="m 10160.6,8622.8 c -966.5,0 -1750,783.5 -1750,1750 0,966.5 783.5,1750 1750,1750 966.5,0 1750,-783.5 1750,-1750 0,-966.5 -783.5,-1750 -1750,-1750"
         style="fill:#e8e8ff;fill-opacity:1;fill-rule:nonzero;stroke:none"
         transform="matrix(0.13333333,0,0,-0.13333333,0,2666.6667)" />
      <path
         id="path21"
         d="m 11400.1,10372.8 c 0,-684.8 -554.9,-1239.9 -1239.5,-1239.9 -684.57,0 -1239.53,555.1 -1239.53,1239.9 0,684.7 554.96,1239.9 1239.53,1239.9 684.6,0 1239.5,-555.2 1239.5,-1239.9"
         style="fill:#ffffff;fill-opacity:1;fill-rule:nonzero;stroke:none"
         transform="matrix(0.13333333,0,0,-0.13333333,0,2666.6667)" />
      <path
         id="path22"
         d="m 10302.1,9763.1 v -188.5 h -239.5 v 180 c -169.75,10.1 -334.41,56.1 -436.3,118.8 l 128.99,292.2 c 112.12,-66.3 261.41,-108.7 392.21,-108.7 113.8,0 154.6,23.8 154.6,64.6 0,149.4 -657.13,28.8 -657.13,472.1 0,191.9 139.21,353.2 417.63,392.3 v 185.1 h 239.5 v -181.7 c 125.5,-11.9 247.9,-44.2 344.6,-98.6 l -120.5,-290.4 c -117.3,59.5 -227.6,88.3 -331.1,88.3 -117.3,0 -154.6,-33.9 -154.6,-74.6 0,-142.7 657.1,-23.8 657.1,-462 0,-183.4 -132.4,-343.1 -395.5,-388.9"
         style="fill:#9192ff;fill-opacity:1;fill-rule:nonzero;stroke:none"
         transform="matrix(0.13333333,0,0,-0.13333333,0,2666.6667)" />
      <path
         id="path23"
         d="M 17876.1,13247.6 H 13161 v 2883.1 h 4715.1 v -2883.1"
         style="fill:#ffffff;fill-opacity:1;fill-rule:nonzero;stroke:none"
         transform="matrix(0.13333333,0,0,-0.13333333,0,2666.6667)" />
      <path
         id="path24"
         d="m 13173.5,13260.1 h 4690.1 v 2858.1 h -4690.1 z m 4715.1,-25 h -4740.1 v 2908.1 h 4740.1 v -2908.1"
         style="fill:#9192ff;fill-opacity:1;fill-rule:nonzero;stroke:none"
         transform="matrix(0.13333333,0,0,-0.13333333,0,2666.6667)" />
      <path
         id="path25"
         d="m 14026,13666.9 h -271.4 v 498.4 h 271.4 v -498.4"
         style="fill:#d1d1ff;fill-opacity:1;fill-rule:nonzero;stroke:none"
         transform="matrix(0.13333333,0,0,-0.13333333,0,2666.6667)" />
      <path
         id="path26"
         d="m 14568.8,13666.9 h -271.4 v 726.1 h 271.4 v -726.1"
         style="fill:#d1d1ff;fill-opacity:1;fill-rule:nonzero;stroke:none"
         transform="matrix(0.13333333,0,0,-0.13333333,0,2666.6667)" />
      <path
         id="path27"
         d="m 15111.5,13666.9 h -271.4 v 540 h 271.4 v -540"
         style="fill:#d1d1ff;fill-opacity:1;fill-rule:nonzero;stroke:none"
         transform="matrix(0.13333333,0,0,-0.13333333,0,2666.6667)" />
      <path
         id="path28"
         d="m 15654.3,13666.9 h -271.4 v 919.9 h 271.4 v -919.9"
         style="fill:#d1d1ff;fill-opacity:1;fill-rule:nonzero;stroke:none"
         transform="matrix(0.13333333,0,0,-0.13333333,0,2666.6667)" />
      <path
         id="path29"
         d="m 16197,13666.9 h -271.3 v 1162.9 h 271.3 v -1162.9"
         style="fill:#d1d1ff;fill-opacity:1;fill-rule:nonzero;stroke:none"
         transform="matrix(0.13333333,0,0,-0.13333333,0,2666.6667)" />
      <path
         id="path30"
         d="m 16739.8,13666.9 h -271.4 v 1510 h 271.4 v -1510"
         style="fill:#d1d1ff;fill-opacity:1;fill-rule:nonzero;stroke:none"
         transform="matrix(0.13333333,0,0,-0.13333333,0,2666.6667)" />
      <path
         id="path31"
         d="m 17282.6,13666.9 h -271.4 v 2044.4 h 271.4 v -2044.4"
         style="fill:#d1d1ff;fill-opacity:1;fill-rule:nonzero;stroke:none"
         transform="matrix(0.13333333,0,0,-0.13333333,0,2666.6667)" />
      <path
         id="path32"
         d="m 13970.3,15224.5 h -215.7 v 244.2 h 215.7 v -244.2"
         style="fill:#d1d1ff;fill-opacity:1;fill-rule:nonzero;stroke:none"
         transform="matrix(0.13333333,0,0,-0.13333333,0,2666.6667)" />
      <path
         id="path33"
         d="m 15764.2,15293.2 h -1460.6 v 62.5 h 1460.6 v -62.5"
         style="fill:#d1d1ff;fill-opacity:1;fill-rule:nonzero;stroke:none"
         transform="matrix(0.13333333,0,0,-0.13333333,0,2666.6667)" />
      <path
         id="path34"
         d="m 13633.4,11785.8 -298.6,824.9 c -337.4,-122.1 -578.5,-445.3 -578.5,-824.9 0,-484.4 392.7,-877.1 877.1,-877.1 484.5,0 877.1,392.7 877.1,877.1 0,145.8 -35.7,283.1 -98.6,404.1 l -778.5,-404.1"
         style="fill:#ebebff;fill-opacity:1;fill-rule:nonzero;stroke:none"
         transform="matrix(0.13333333,0,0,-0.13333333,0,2666.6667)" />
      <path
         id="path35"
         d="m 14528.5,12502.4 c -146.1,281 -439.7,473.1 -778.4,473.1 -104.9,0 -205.4,-18.5 -298.6,-52.3 l 298.6,-824.9 778.4,404.1"
         style="fill:#9192ff;fill-opacity:1;fill-rule:nonzero;stroke:none"
         transform="matrix(0.13333333,0,0,-0.13333333,0,2666.6667)" />
      <path
         id="path36"
         d="m 14875,7000 h -2075 v 1975 h 2075 V 7000"
         style="fill:#ebebff;fill-opacity:1;fill-rule:nonzero;stroke:none"
         transform="matrix(0.13333333,0,0,-0.13333333,0,2666.6667)" />
      <path
         id="path37"
         d="M 14287.5,8366.6 H 13125 v 83.4 h 1162.5 v -83.4"
         style="fill:#ffffff;fill-opacity:1;fill-rule:nonzero;stroke:none"
         transform="matrix(0.13333333,0,0,-0.13333333,0,2666.6667)" />
      <path
         id="path38"
         d="M 14287.5,8116.6 H 13125 v 83.4 h 1162.5 v -83.4"
         style="fill:#ffffff;fill-opacity:1;fill-rule:nonzero;stroke:none"
         transform="matrix(0.13333333,0,0,-0.13333333,0,2666.6667)" />
      <path
         id="path39"
         d="M 6954.36,9700 H 5150 v 3050 H 6954.36 V 9700"
         style="fill:#ebebff;fill-opacity:1;fill-rule:nonzero;stroke:none"
         transform="matrix(0.13333333,0,0,-0.13333333,0,2666.6667)" />
      <path
         id="path40"
         d="M 6608.33,11225 H 5425 v 1083.3 H 6608.33 V 11225"
         style="fill:#ffffff;fill-opacity:1;fill-rule:nonzero;stroke:none"
         transform="matrix(0.13333333,0,0,-0.13333333,0,2666.6667)" />
      <path
         id="path41"
         d="m 6599.89,11215.8 -1183.33,1083.3 16.88,18.5 1183.34,-1083.4 -16.89,-18.4"
         style="fill:#ebebff;fill-opacity:1;fill-rule:nonzero;stroke:none"
         transform="matrix(0.13333333,0,0,-0.13333333,0,2666.6667)" />
      <path
         id="path42"
         d="m 5433.44,11215.8 -16.88,18.4 1183.33,1083.4 16.89,-18.5 -1183.34,-1083.3"
         style="fill:#ebebff;fill-opacity:1;fill-rule:nonzero;stroke:none"
         transform="matrix(0.13333333,0,0,-0.13333333,0,2666.6667)" />
      <path
         id="path43"
         d="m 1890.16,8785 h 4127.12 v 2719.3 H 1890.16 Z"
         style="fill:#ffffff;fill-opacity:1;fill-rule:nonzero;stroke:none"
         transform="matrix(0.13333333,0,0,-0.13333333,0,2666.6667)" />
      <path
         id="path44"
         d="m 1902.1,8796.9 h 4103.25 v 2695.5 H 1902.1 Z m 4127.12,-23.8 H 1878.23 v 2743.1 H 6029.22 V 8773.1"
         style="fill:#9192ff;fill-opacity:1;fill-rule:nonzero;stroke:none"
         transform="matrix(0.13333333,0,0,-0.13333333,0,2666.6667)" />
      <path
         id="path45"
         d="m 2325,9441.7 266.67,500 550,-516.7 366.66,1066.7 683.34,-750 450,183.3 816.66,1066.7"
         style="fill:#ffffff;fill-opacity:1;fill-rule:nonzero;stroke:none"
         transform="matrix(0.13333333,0,0,-0.13333333,0,2666.6667)" />
      <path
         id="path46"
         d="m 3147.2,9402.6 -552.19,518.8 -258.98,-485.6 -22.06,11.7 274.35,514.5 547.81,-514.6 367.24,1068.3 691.66,-759.2 438.77,178.8 814.61,1064 19.85,-15.2 -818.73,-1069.4 -461.23,-187.9 -5.87,6.5 -669.13,734.4 -366.1,-1065.1"
         style="fill:#9192ff;fill-opacity:1;fill-rule:nonzero;stroke:none"
         transform="matrix(0.13333333,0,0,-0.13333333,0,2666.6667)" />
      <path
         id="path47"
         d="m 2662.5,9943.7 c 0,-37.9 -30.78,-68.7 -68.75,-68.7 -37.97,0 -68.75,30.8 -68.75,68.7 0,38 30.78,68.8 68.75,68.8 37.97,0 68.75,-30.8 68.75,-68.8"
         style="fill:#9192ff;fill-opacity:1;fill-rule:nonzero;stroke:none"
         transform="matrix(0.13333333,0,0,-0.13333333,0,2666.6667)" />
      <path
         id="path48"
         d="m 3206.25,9437.5 c 0,-38 -30.78,-68.8 -68.75,-68.8 -37.97,0 -68.75,30.8 -68.75,68.8 0,38 30.78,68.7 68.75,68.7 37.97,0 68.75,-30.7 68.75,-68.7"
         style="fill:#9192ff;fill-opacity:1;fill-rule:nonzero;stroke:none"
         transform="matrix(0.13333333,0,0,-0.13333333,0,2666.6667)" />
      <path
         id="path49"
         d="m 3581.25,10487.5 c 0,-38 -30.78,-68.7 -68.75,-68.7 -37.97,0 -68.75,30.7 -68.75,68.7 0,38 30.78,68.8 68.75,68.8 37.97,0 68.75,-30.8 68.75,-68.8"
         style="fill:#9192ff;fill-opacity:1;fill-rule:nonzero;stroke:none"
         transform="matrix(0.13333333,0,0,-0.13333333,0,2666.6667)" />
      <path
         id="path50"
         d="m 3078.72,11058.3 h 1750"
         style="fill:#ffffff;fill-opacity:1;fill-rule:nonzero;stroke:none"
         transform="matrix(0.13333333,0,0,-0.13333333,0,2666.6667)" />
      <path
         id="path51"
         d="m 4828.72,11045.8 h -1750 v 25 h 1750 v -25"
         style="fill:#9192ff;fill-opacity:1;fill-rule:nonzero;stroke:none"
         transform="matrix(0.13333333,0,0,-0.13333333,0,2666.6667)" />
      <path
         id="path52"
         d="m 11702.8,4931.3 c -74,484.8 27.7,994.5 282,1413.8 254.4,419.4 659.4,745.1 1123.5,903.5 -262.8,-183.9 -423.2,-481.3 -535.2,-781.9 -111.9,-300.7 -185.3,-616.2 -323.5,-905.8 -138.1,-289.5 -355.8,-560.1 -657.8,-668.4 l 111,38.8"
         style="fill:#9192ff;fill-opacity:1;fill-rule:nonzero;stroke:none"
         transform="matrix(0.13333333,0,0,-0.13333333,0,2666.6667)" />
      <path
         id="path53"
         d="m 11630.2,4927.3 c -10.5,560.3 -119.4,1118.6 -320.1,1641.9 -71.2,185.8 -156.7,371.2 -295.7,513.7 -138.9,142.4 -341,236.2 -536.9,201.4 243.9,-182.6 370.3,-483 441.5,-779.3 71.2,-296.4 98.6,-603.9 198.8,-891.7 100.2,-287.8 291.9,-565.2 578.8,-668.1 l -66.4,-17.9"
         style="fill:#9192ff;fill-opacity:1;fill-rule:nonzero;stroke:none"
         transform="matrix(0.13333333,0,0,-0.13333333,0,2666.6667)" />
      <path
         id="path54"
         d="m 11591.9,4890.5 c -139.5,375.7 -291.1,760.8 -571.6,1047 -280.5,286.1 -725,449.9 -1092.33,289.9 297.53,-67.5 570.13,-239.8 758.83,-479.5 138.4,-175.8 231.4,-384.2 373.7,-556.8 142.3,-172.6 359.4,-311.7 579.3,-270.5 l -47.9,-30.1"
         style="fill:#d1d1ff;fill-opacity:1;fill-rule:nonzero;stroke:none"
         transform="matrix(0.13333333,0,0,-0.13333333,0,2666.6667)" />
      <path
         id="path55"
         d="m 11547.3,4916.2 c -57.1,412.3 -114.3,831.2 -54.1,1243 60.2,411.8 255,823 603.9,1049.9 -193.1,-189.4 -257.6,-476.2 -257.7,-746.7 -0.1,-270.5 54.7,-538.5 59.3,-809 4.6,-270.4 -49.1,-557.7 -232,-757 l -119.4,19.8"
         style="fill:#d1d1ff;fill-opacity:1;fill-rule:nonzero;stroke:none"
         transform="matrix(0.13333333,0,0,-0.13333333,0,2666.6667)" />
      <path
         id="path56"
         d="m 11740.4,4976.3 c 133.7,340.7 276.2,694.4 548.5,939 174.9,157 397.6,260 630.5,291.5 -163.3,-130.3 -265.5,-321.2 -350.3,-512.1 -84.8,-190.9 -158,-389.7 -280.8,-558.7 -122.8,-169 -307.2,-308 -515.9,-317 l -32,157.3"
         style="fill:#d1d1ff;fill-opacity:1;fill-rule:nonzero;stroke:none"
         transform="matrix(0.13333333,0,0,-0.13333333,0,2666.6667)" />
      <path
         id="path57"
         d="M 12419.4,3939.6 H 10917.6 L 10686,5094.9 h 1964.9 l -231.5,-1155.3"
         style="fill:#ffffff;fill-opacity:1;fill-rule:nonzero;stroke:none"
         transform="matrix(0.13333333,0,0,-0.13333333,0,2666.6667)" />
      <path
         id="path58"
         d="m 10927.8,3952.1 h 1481.4 l 226.5,1130.3 h -1934.4 z m 1501.8,-25 h -1522.3 l -236.5,1180.3 h 1995.4 l -236.6,-1180.3"
         style="fill:#9192ff;fill-opacity:1;fill-rule:nonzero;stroke:none"
         transform="matrix(0.13333333,0,0,-0.13333333,0,2666.6667)" />
      <path
         id="path59"
         d="m 15108.1,4634.3 v -694.7 h -901 l 412.5,336.5 21.7,423.4 466.8,-65.2"
         style="fill:#d1d1ff;fill-opacity:1;fill-rule:nonzero;stroke:none"
         transform="matrix(0.13333333,0,0,-0.13333333,0,2666.6667)" />
      <path
         id="path60"
         d="m 14783,4103.4 -172,163.7 17.3,18.1 172,-163.6 -17.3,-18.2"
         style="fill:#1b1b43;fill-opacity:1;fill-rule:nonzero;stroke:none"
         transform="matrix(0.13333333,0,0,-0.13333333,0,2666.6667)" />
      <path
         id="path61"
         d="m 15020.8,4425 h -308.3 v 25 h 308.3 v -25"
         style="fill:#1b1b43;fill-opacity:1;fill-rule:nonzero;stroke:none"
         transform="matrix(0.13333333,0,0,-0.13333333,0,2666.6667)" />
      <path
         id="path62"
         d="m 16161,4601.8 32.6,-662.2 h -901 l 380,325.7 v 401.6 l 488.4,-65.1"
         style="fill:#d1d1ff;fill-opacity:1;fill-rule:nonzero;stroke:none"
         transform="matrix(0.13333333,0,0,-0.13333333,0,2666.6667)" />
      <path
         id="path63"
         d="m 15804.2,4132.3 -139.9,123.6 16.5,18.7 139.9,-123.6 -16.5,-18.7"
         style="fill:#1b1b43;fill-opacity:1;fill-rule:nonzero;stroke:none"
         transform="matrix(0.13333333,0,0,-0.13333333,0,2666.6667)" />
      <path
         id="path64"
         d="M 16079.1,4412.5 H 15775 v 25 h 304.1 v -25"
         style="fill:#1b1b43;fill-opacity:1;fill-rule:nonzero;stroke:none"
         transform="matrix(0.13333333,0,0,-0.13333333,0,2666.6667)" />
      <path
         id="path65"
         d="m 15198.8,8627.6 c 15.5,-1384.3 130.3,-2746.5 349.7,-4085.5 h 759.1 c -157.9,1024 -229.3,2267.5 -141,3916.2 l -548.2,449 -419.6,-279.7"
         style="fill:#fe5b52;fill-opacity:1;fill-rule:nonzero;stroke:none"
         transform="matrix(0.13333333,0,0,-0.13333333,0,2666.6667)" />
      <path
         id="path66"
         d="m 14598.7,8444.5 -343.5,-1527.8 c -82.6,-367.1 -88.3,-747.3 -16.9,-1116.7 l 241.3,-1248 h 759.2 l -229.7,1638.3 549.4,2497.3 -959.8,-243.1"
         style="fill:#fe5b52;fill-opacity:1;fill-rule:nonzero;stroke:none"
         transform="matrix(0.13333333,0,0,-0.13333333,0,2666.6667)" />
      <path
         id="path67"
         d="m 15250,6980.5 c -1.9,31.5 -45.1,734.1 -49.6,823.1 l -198.4,72.2 8.5,23.4 214.5,-77.9 v -8.8 c 0,-15.4 32.7,-550 50,-830.5 l -25,-1.5"
         style="fill:#be443d;fill-opacity:1;fill-rule:nonzero;stroke:none"
         transform="matrix(0.13333333,0,0,-0.13333333,0,2666.6667)" />
      <path
         id="path68"
         d="m 16893.7,11893.8 40.6,96.8 c 0,0 -146.8,309.4 -100,350 46.9,40.7 121.9,-75 121.9,-75 0,0 -21.9,375 50,378.2 60.6,2.6 56.3,-106.3 62.5,-268.8 0,0 37.5,50 106.5,-1.7 31,51.7 96.6,17.3 115.4,-13.9 21.9,25 112.5,18.7 100,-87.5 -15.9,-134.8 -78.1,-384.4 -78.1,-384.4 l -200,-165.6 -218.8,171.9"
         style="fill:#ffbc96;fill-opacity:1;fill-rule:nonzero;stroke:none"
         transform="matrix(0.13333333,0,0,-0.13333333,0,2666.6667)" />
      <path
         id="path69"
         d="m 15287.5,10600 304.1,2.4 c 533.4,47.6 950.1,480.9 950.1,480.9 l 352,810.5 418.8,-6.3 -245.8,-952.4 c -35.3,-136.8 -111.4,-259.7 -218.1,-352.2 L 15975,9825 l -687.5,775"
         style="fill:#3335cf;fill-opacity:1;fill-rule:nonzero;stroke:none"
         transform="matrix(0.13333333,0,0,-0.13333333,0,2666.6667)" />
      <path
         id="path70"
         d="m 14453.9,9910.4 144.8,-1465.9 1567.9,13.8 -54.1,1766.7 -825,375 -570.9,-241.7 -262.7,-447.9"
         style="fill:#3335cf;fill-opacity:1;fill-rule:nonzero;stroke:none"
         transform="matrix(0.13333333,0,0,-0.13333333,0,2666.6667)" />
      <path
         id="path71"
         d="m 13482.9,9768 c -25.6,22.8 -57.8,36.6 -91.9,39.4 -173.3,14.5 -715.2,56.3 -709.9,14.3 6.2,-50 418.7,-237.5 418.7,-237.5 88.2,-99.3 176.5,-198.6 264.7,-297.8 l 242.4,371.6 -124,110"
         style="fill:#ffbc96;fill-opacity:1;fill-rule:nonzero;stroke:none"
         transform="matrix(0.13333333,0,0,-0.13333333,0,2666.6667)" />
      <path
         id="path72"
         d="m 14664.8,10458.9 c -111.7,-19.5 -207.7,-90.4 -259.1,-191.5 l -462.1,-908.2 -336.7,298.8 -242.4,-371.6 c 29.5,-33.2 59,-66.4 88.4,-99.6 130.9,-147.3 283.6,-345.3 488,-388.2 104.1,-21.8 201.1,21.4 275.7,93.1 54.8,52.5 103.7,117.4 142.7,182.5 l 184.3,303.7 587.5,1162.5 -466.3,-81.5"
         style="fill:#3335cf;fill-opacity:1;fill-rule:nonzero;stroke:none"
         transform="matrix(0.13333333,0,0,-0.13333333,0,2666.6667)" />
      <path
         id="path73"
         d="m 14529.2,9007.1 -87.7,902.1 24.8,2.4 87.8,-902.1 -24.9,-2.4"
         style="fill:#d1d1ff;fill-opacity:1;fill-rule:nonzero;stroke:none"
         transform="matrix(0.13333333,0,0,-0.13333333,0,2666.6667)" />
      <path
         id="path74"
         d="M 16121.9,9956.2 15975,9825 l 156.3,-259.4 z"
         style="fill:#1b1b43;fill-opacity:1;fill-rule:nonzero;stroke:none"
         transform="matrix(0.13333333,0,0,-0.13333333,0,2666.6667)" />
      <path
         id="path75"
         d="m 17122.9,12188.5 c -59,0 -63.5,77.3 -63.6,186.5 h 18.8 c 0,-128.5 10.5,-167.7 44.8,-167.7 6.9,0 12.7,2.7 18,8.4 16.7,17.9 23.2,59.7 25.2,97.4 -1.3,27.1 -0.7,50.8 -0.3,60.6 l 18.8,0.3 c 0.1,-2.3 1.8,-27.6 0.4,-58.7 2.6,-50.9 11.1,-101.2 28.1,-106.3 9.5,-2.9 17.7,-1.6 25.2,3.7 20.2,14.6 31.6,55.8 37.5,92.7 0.5,15.8 2.2,34.1 5.5,55.4 l 18.7,-1.7 c -0.1,-2.1 -0.8,-23.5 -4.8,-50.4 -1.3,-39 3.1,-76.8 18.9,-83.4 11.6,-4.9 21.3,-4.9 29.4,0.1 21.5,13.1 29.3,57.3 30.5,73.2 l 18.7,-1.4 c -0.2,-2.7 -5.4,-67 -39.4,-87.8 -13.5,-8.2 -29.1,-8.7 -46.5,-1.4 -4.4,1.9 -18.2,9.9 -25.9,39.1 -7.4,-20.9 -17.6,-39.5 -31.7,-49.6 -12.3,-8.9 -26.2,-11.1 -41.5,-6.5 -16.5,5 -26.7,26 -32.9,52.3 -4.6,-16.3 -11.1,-30.7 -20.2,-40.4 -8.9,-9.5 -19.5,-14.4 -31.7,-14.4"
         style="fill:#d28572;fill-opacity:1;fill-rule:nonzero;stroke:none"
         transform="matrix(0.13333333,0,0,-0.13333333,0,2666.6667)" />
      <path
         id="path76"
         d="m 15155.2,10244.3 c -133.2,-10.8 -249.7,88.5 -260.5,221.5 l -2.7,33.7 -38,471.5 293.7,23.5 188.5,15.3 40.5,-505 c 10.8,-133.3 -88.5,-249.8 -221.5,-260.5"
         style="fill:#ffbc96;fill-opacity:1;fill-rule:nonzero;stroke:none"
         transform="matrix(0.13333333,0,0,-0.13333333,0,2666.6667)" />
      <path
         id="path77"
         d="m 15241.7,10835.5 c -91.5,-161.2 -222.5,-277.2 -349.7,-336 l -38,471.5 293.7,23.5 94,-159"
         style="fill:#1b1b43;fill-opacity:1;fill-rule:nonzero;stroke:none"
         transform="matrix(0.13333333,0,0,-0.13333333,0,2666.6667)" />
      <path
         id="path78"
         d="m 15337.5,11329.3 -58.3,-491.8 c 0,0 -187.5,-179.2 -462.5,-170.7 -100.2,3 -159.2,98 -193.7,218.7 -14.3,50.5 -24.2,105.3 -31.3,160 -23,181 -12.5,358.8 -12.5,358.8 l 425,141.5 333.3,-216.5"
         style="fill:#ffbc96;fill-opacity:1;fill-rule:nonzero;stroke:none"
         transform="matrix(0.13333333,0,0,-0.13333333,0,2666.6667)" />
      <path
         id="path79"
         d="m 15272.9,11127.1 c -44.3,157.7 -123.8,237.1 -231.3,254.2 -341.6,-185.5 -563.5,-75 -725,131.2 395.9,-77.1 568.8,485.4 948,110.4 281.2,-85.4 276,-354.1 116.7,-572.9 l -108.4,77.1"
         style="fill:#1b1b43;fill-opacity:1;fill-rule:nonzero;stroke:none"
         transform="matrix(0.13333333,0,0,-0.13333333,0,2666.6667)" />
      <path
         id="path80"
         d="m 15449.3,11066.8 c -14.5,-74.2 -78.4,-124.2 -142.8,-111.6 -64.3,12.5 -104.8,82.9 -90.3,157.1 14.5,74.3 78.5,124.2 142.8,111.7 64.4,-12.6 104.8,-83 90.3,-157.2"
         style="fill:#ffbc96;fill-opacity:1;fill-rule:nonzero;stroke:none"
         transform="matrix(0.13333333,0,0,-0.13333333,0,2666.6667)" />
      <path
         id="path81"
         d="m 15376.6,11140.5 c -19.6,-3.3 -32.3,-18.2 -41.8,-35 -9.3,-17.2 -15.4,-36.2 -19.1,-56.7 l -7.3,-0.5 c -3.1,11 -3.2,22.7 -1.3,33.9 1.9,11.3 5.7,22.3 11.5,32.4 5.8,10.1 13.4,19.5 23.7,26.2 10,6.8 23.3,10.2 34.8,7 l -0.5,-7.3"
         style="fill:#1b1b43;fill-opacity:1;fill-rule:nonzero;stroke:none"
         transform="matrix(0.13333333,0,0,-0.13333333,0,2666.6667)" />
      <path
         id="path82"
         d="m 14681.2,11107.3 c 0,-21.3 -10.2,-38.5 -22.9,-38.5 -12.7,0 -22.9,17.2 -22.9,38.5 0,21.3 10.2,38.5 22.9,38.5 12.7,0 22.9,-17.2 22.9,-38.5"
         style="fill:#1b1b43;fill-opacity:1;fill-rule:nonzero;stroke:none"
         transform="matrix(0.13333333,0,0,-0.13333333,0,2666.6667)" />
      <path
         id="path83"
         d="m 14870.6,11123 c 0,-23.1 -11.1,-41.7 -24.8,-41.7 -13.7,0 -24.8,18.6 -24.8,41.7 0,23.1 11.1,41.8 24.8,41.8 13.7,0 24.8,-18.7 24.8,-41.8"
         style="fill:#1b1b43;fill-opacity:1;fill-rule:nonzero;stroke:none"
         transform="matrix(0.13333333,0,0,-0.13333333,0,2666.6667)" />
      <path
         id="path84"
         d="m 14733.3,11076 c 0.1,-7.4 -2.9,-14.7 -6.5,-20.9 -3.7,-6.2 -8.2,-11.5 -12.7,-16.4 -8.8,-9.7 -17.1,-18.5 -19,-27.8 -2.5,-9.4 1.2,-18.7 8.4,-28 7.3,-9.2 17.1,-17.5 26.6,-26.7 l -4,-6.1 c -12.2,5.1 -24.3,11.6 -34.8,21.7 -5.2,5.1 -9.8,11.3 -12.9,18.9 -2.9,7.7 -3.6,16.5 -1.5,24.5 2.1,8.2 6.3,15.2 11.1,20.7 4.8,5.5 10,10.1 14.9,14.3 9.8,8.4 19.1,15.7 23.1,26.9 l 7.3,-1.1"
         style="fill:#1b1b43;fill-opacity:1;fill-rule:nonzero;stroke:none"
         transform="matrix(0.13333333,0,0,-0.13333333,0,2666.6667)" />
      <path
         id="path85"
         d="m 14751.3,10867.7 c 26.4,5.9 50.9,14.2 72.7,27.9 11,6.7 21.3,14.5 31.2,23 10,8.6 19.4,17.8 29.3,27.3 l 5.9,-4.3 c -12.2,-25.1 -31.9,-47.1 -56.7,-62 -24.6,-14.9 -54,-22 -82,-19.2 l -0.4,7.3"
         style="fill:#1b1b43;fill-opacity:1;fill-rule:nonzero;stroke:none"
         transform="matrix(0.13333333,0,0,-0.13333333,0,2666.6667)" />
      <path
         id="path86"
         d="m 14815.7,11226.5 c -5.4,-28.2 83.3,-37.3 99.2,-40.1 13.2,-2.3 31.9,-3.8 34.7,16.1 3.4,24.7 -23.5,27.3 -38.7,30.6 -14.5,3.2 -90.1,20 -95.2,-6.6"
         style="fill:#1b1b43;fill-opacity:1;fill-rule:nonzero;stroke:none"
         transform="matrix(0.13333333,0,0,-0.13333333,0,2666.6667)" />
      <path
         id="path87"
         d="m 14692.4,11209.1 c -0.5,-27.2 -71,-30 -83.9,-31.6 -10.6,-1.3 -25.4,-1.4 -24.3,17.7 1.4,23.8 22.7,24.5 35.1,26.6 11.8,2.1 73.5,13.1 73.1,-12.7"
         style="fill:#1b1b43;fill-opacity:1;fill-rule:nonzero;stroke:none"
         transform="matrix(0.13333333,0,0,-0.13333333,0,2666.6667)" />
      <path
         id="path88"
         d="m 15023.4,10948.4 c -50,0 -90.6,40.6 -90.6,90.7 0,50 40.6,90.6 90.6,90.6 50.1,0 90.7,-40.6 90.7,-90.6 0,-50.1 -40.6,-90.7 -90.7,-90.7"
         style="fill:#ffa988;fill-opacity:1;fill-rule:nonzero;stroke:none"
         transform="matrix(0.13333333,0,0,-0.13333333,0,2666.6667)" />
      <path
         id="path89"
         d="m 14623,10885.5 v 0 c -14.3,50.5 -24.2,105.3 -31.3,160 39.1,-10.2 67.8,-45.7 67.8,-87.7 0,-29.8 -14.2,-56 -36.5,-72.3"
         style="fill:#ffa988;fill-opacity:1;fill-rule:nonzero;stroke:none"
         transform="matrix(0.13333333,0,0,-0.13333333,0,2666.6667)" />
      <path
         id="path90"
         d="M 8200.09,7920.5 H 6460.93 v 117.1 h 1739.16 v -117.1"
         style="fill:#9192ff;fill-opacity:1;fill-rule:nonzero;stroke:none"
         transform="matrix(0.13333333,0,0,-0.13333333,0,2666.6667)" />
      <path
         id="path91"
         d="M 8200,8037.5 H 6731.25 L 7287.5,9393.7 H 8756.25 L 8200,8037.5"
         style="fill:#ffffff;fill-opacity:1;fill-rule:nonzero;stroke:none"
         transform="matrix(0.13333333,0,0,-0.13333333,0,2666.6667)" />
      <path
         id="path92"
         d="m 6749.89,8050 h 1441.73 l 545.99,1331.2 H 7295.88 Z m 1458.49,-25 H 6712.61 l 566.51,1381.2 H 8774.89 L 8208.38,8025"
         style="fill:#9192ff;fill-opacity:1;fill-rule:nonzero;stroke:none"
         transform="matrix(0.13333333,0,0,-0.13333333,0,2666.6667)" />
      <path
         id="path93"
         d="M 8073.2,8151.5 H 6918.93 l 437.15,1065.9 H 8510.35 L 8073.2,8151.5"
         style="fill:#ebebff;fill-opacity:1;fill-rule:nonzero;stroke:none"
         transform="matrix(0.13333333,0,0,-0.13333333,0,2666.6667)" />
      <path
         id="path94"
         d="m 7615.27,3933.3 h -25 V 7883 h 25 V 3933.3"
         style="fill:#1b1b43;fill-opacity:1;fill-rule:nonzero;stroke:none"
         transform="matrix(0.13333333,0,0,-0.13333333,0,2666.6667)" />
      <path
         id="path95"
         d="M 9005.54,7697.2 H 6200 v 223.2 h 2805.54 v -223.2"
         style="fill:#d1d1ff;fill-opacity:1;fill-rule:nonzero;stroke:none"
         transform="matrix(0.13333333,0,0,-0.13333333,0,2666.6667)" />
      <path
         id="path96"
         d="m 3935.99,3933.3 h -25 v 2290.6 h 25 V 3933.3"
         style="fill:#1b1b43;fill-opacity:1;fill-rule:nonzero;stroke:none"
         transform="matrix(0.13333333,0,0,-0.13333333,0,2666.6667)" />
      <path
         id="path97"
         d="m 4609.59,6117.7 h -1372.2 c 29.13,139.3 151.95,239.1 294.27,239.1 h 783.66 c 142.32,0 265.14,-99.8 294.27,-239.1"
         style="fill:#d1d1ff;fill-opacity:1;fill-rule:nonzero;stroke:none"
         transform="matrix(0.13333333,0,0,-0.13333333,0,2666.6667)" />
      <path
         id="path98"
         d="m 4279.69,3939.9 h -712.4 c 0,86.6 70.22,156.9 156.84,156.9 h 398.72 c 86.62,0 156.84,-70.3 156.84,-156.9"
         style="fill:#d1d1ff;fill-opacity:1;fill-rule:nonzero;stroke:none"
         transform="matrix(0.13333333,0,0,-0.13333333,0,2666.6667)" />
      <path
         id="path99"
         d="m 4982.12,9622.6 c 35.1,-50.4 85.42,-121.8 90.99,-184.3 8.07,-90.8 -137.17,-27.1 -138.88,-35 l 47.89,219.3"
         style="fill:#d28572;fill-opacity:1;fill-rule:nonzero;stroke:none"
         transform="matrix(0.13333333,0,0,-0.13333333,0,2666.6667)" />
      <path
         id="path100"
         d="m 4301.07,8842.8 h 459.25 v 673 h -459.25 z"
         style="fill:#ffbc96;fill-opacity:1;fill-rule:nonzero;stroke:none"
         transform="matrix(0.13333333,0,0,-0.13333333,0,2666.6667)" />
      <path
         id="path101"
         d="m 4760.32,9400.4 v -480.5 c -144.71,90.9 -269.81,225.9 -377.92,381.8 l 377.92,98.7"
         style="fill:#1b1b43;fill-opacity:1;fill-rule:nonzero;stroke:none"
         transform="matrix(0.13333333,0,0,-0.13333333,0,2666.6667)" />
      <path
         id="path102"
         d="m 5018.44,9581.8 c -14.3,-232.5 -103.75,-495.5 -347.87,-430.6 -191.75,50.9 -402.8,212.4 -402.8,445.3 0,232.9 161.21,421.8 360.08,421.8 124.29,0 280.78,-60.4 354.43,-176.9 44.19,-69.9 42.4,-158.2 36.16,-259.6"
         style="fill:#ffbc96;fill-opacity:1;fill-rule:nonzero;stroke:none"
         transform="matrix(0.13333333,0,0,-0.13333333,0,2666.6667)" />
      <path
         id="path103"
         d="m 4612,9649.2 c 65.01,172.5 213.83,189.4 213.83,189.4 0,0 344.56,-340.8 323.22,11.3 -16.96,279.9 -290.45,253.4 -290.45,253.4 -133.61,173.9 -347.89,105.9 -426.04,5 -78.15,-100.8 -50.41,-42.8 -234.44,-108.4 -184.03,-65.5 -85.71,-345.3 -118.49,-365.5 -244.52,0 -199.15,-242 -199.15,-242 l 578.89,-188.8 139.44,380.6 13.19,65"
         style="fill:#1b1b43;fill-opacity:1;fill-rule:nonzero;stroke:none"
         transform="matrix(0.13333333,0,0,-0.13333333,0,2666.6667)" />
      <path
         id="path104"
         d="m 4672.36,9629.5 c 35.79,-62 26.12,-134.6 -21.61,-162.2 -47.73,-27.5 -115.44,0.4 -151.24,62.4 -35.79,62 -26.11,134.6 21.62,162.1 47.73,27.6 115.44,-0.3 151.23,-62.3"
         style="fill:#ffbc96;fill-opacity:1;fill-rule:nonzero;stroke:none"
         transform="matrix(0.13333333,0,0,-0.13333333,0,2666.6667)" />
      <path
         id="path105"
         d="m 4598.44,9554.8 c -8.14,15.7 -14.99,31 -25.95,41.7 -5.38,5.4 -11.61,9.7 -18.7,13.6 -7.09,3.8 -14.98,7 -23.07,10.8 l 1.24,6.6 c 9.18,0.5 18.49,-0.6 27.63,-3.7 9.12,-3 17.98,-8.3 24.94,-15.5 6.96,-7.2 12.01,-15.8 15.16,-24.7 3.21,-8.9 4.91,-18 5.18,-27.2 l -6.43,-1.6"
         style="fill:#1b1b43;fill-opacity:1;fill-rule:nonzero;stroke:none"
         transform="matrix(0.13333333,0,0,-0.13333333,0,2666.6667)" />
      <path
         id="path106"
         d="m 4362.29,10392.7 c 107.33,5.1 198.8,-85 204.31,-201.3 5.51,-116.2 -77.02,-214.6 -184.35,-219.7 -107.32,-5.1 -198.79,85 -204.31,201.3 -5.5,116.3 77.03,214.7 184.35,219.7"
         style="fill:#1b1b43;fill-opacity:1;fill-rule:nonzero;stroke:none"
         transform="matrix(0.13333333,0,0,-0.13333333,0,2666.6667)" />
      <path
         id="path107"
         d="m 4818.75,9362.5 c -48.32,0 -87.5,39.2 -87.5,87.5 0,48.3 39.18,87.5 87.5,87.5 48.33,0 87.5,-39.2 87.5,-87.5 0,-48.3 -39.17,-87.5 -87.5,-87.5"
         style="fill:#ffa988;fill-opacity:1;fill-rule:nonzero;stroke:none"
         transform="matrix(0.13333333,0,0,-0.13333333,0,2666.6667)" />
      <path
         id="path108"
         d="M 5162.5,7187.5 3691.75,7375 3969,8836.7 c 19.5,102.3 87.5,189.1 182.25,232 79,36 169.25,38.3 250.25,6.6 l 501.25,-222.8 c 96.5,-42.8 163,-133.5 175,-238.3 l 28.25,-477.5 32.25,-541.2 24.25,-408"
         style="fill:#ffa121;fill-opacity:1;fill-rule:nonzero;stroke:none"
         transform="matrix(0.13333333,0,0,-0.13333333,0,2666.6667)" />
      <path
         id="path109"
         d="m 6508.33,8237.5 389.29,114.4 c 28.05,8.3 58.2,3.8 82.56,-12.4 106.55,-70.8 390.19,-270.9 318.57,-352.7 -35.75,-40.9 -361.25,54.9 -361.25,54.9 l -471.31,-131.5 42.14,327.3"
         style="fill:#ffbc96;fill-opacity:1;fill-rule:nonzero;stroke:none"
         transform="matrix(0.13333333,0,0,-0.13333333,0,2666.6667)" />
      <path
         id="path110"
         d="m 5138.25,7595.5 c -122.5,156 -195.25,362 -219.5,617 l 187.25,-75.8 32.25,-541.2"
         style="fill:#1b1b43;fill-opacity:1;fill-rule:nonzero;stroke:none"
         transform="matrix(0.13333333,0,0,-0.13333333,0,2666.6667)" />
      <path
         id="path111"
         d="m 4858.33,8870.8 58.6,-25.2 c 120.65,-52 228.76,-129.3 317.07,-226.5 l 482.67,-531.6 791.66,150 104.17,-425 -994.73,-310.9 c -78.54,-14 -158.8,13.1 -212.78,71.9 l -717.49,780.7 170.83,516.6"
         style="fill:#ffa121;fill-opacity:1;fill-rule:nonzero;stroke:none"
         transform="matrix(0.13333333,0,0,-0.13333333,0,2666.6667)" />
      <path
         id="path112"
         d="m 5707.46,8079 c -2.35,2.6 -237.84,259 -441.79,487.7 -201.62,226 -509.01,335.9 -512.09,337 l 8.29,23.6 c 3.14,-1.1 316.45,-113 522.46,-344 203.83,-228.5 439.19,-484.8 441.54,-487.3 l -18.41,-17"
         style="fill:#1b1b43;fill-opacity:1;fill-rule:nonzero;stroke:none"
         transform="matrix(0.13333333,0,0,-0.13333333,0,2666.6667)" />
      <path
         id="path113"
         d="m 5396.01,7564.8 -667.49,689 17.96,17.4 667.49,-689 -17.96,-17.4"
         style="fill:#1b1b43;fill-opacity:1;fill-rule:nonzero;stroke:none"
         transform="matrix(0.13333333,0,0,-0.13333333,0,2666.6667)" />
      <path
         id="path114"
         d="m 5109.19,4976.6 -317.28,-618.1 801.52,-411.4 -213.28,487.7 174.02,386.5 -444.98,155.3"
         style="fill:#d1d1ff;fill-opacity:1;fill-rule:nonzero;stroke:none"
         transform="matrix(0.13333333,0,0,-0.13333333,0,2666.6667)" />
      <path
         id="path115"
         d="m 5155.95,4355.8 -7.06,24 227.73,67 7.06,-24 -227.73,-67"
         style="fill:#1b1b43;fill-opacity:1;fill-rule:nonzero;stroke:none"
         transform="matrix(0.13333333,0,0,-0.13333333,0,2666.6667)" />
      <path
         id="path116"
         d="m 5608.33,4570.4 -726.1,270.9 497.23,1547.2 c 85.48,229.1 348.78,342.4 588.09,253.1 h 0.01 c 239.31,-89.2 364.02,-347.4 278.54,-576.5 L 5608.33,4570.4"
         style="fill:#26289c;fill-opacity:1;fill-rule:nonzero;stroke:none"
         transform="matrix(0.13333333,0,0,-0.13333333,0,2666.6667)" />
      <path
         id="path117"
         d="m 6312.5,4675 70.88,-735.4 h 900.96 L 6871.86,4276.1 6775,4700 6312.5,4675"
         style="fill:#d1d1ff;fill-opacity:1;fill-rule:nonzero;stroke:none"
         transform="matrix(0.13333333,0,0,-0.13333333,0,2666.6667)" />
      <path
         id="path118"
         d="m 6664.37,4147.4 -12.07,21.9 213.52,117.8 12.07,-21.9 -213.52,-117.8"
         style="fill:#1b1b43;fill-opacity:1;fill-rule:nonzero;stroke:none"
         transform="matrix(0.13333333,0,0,-0.13333333,0,2666.6667)" />
      <path
         id="path119"
         d="m 6962.5,4587.5 -787.5,-125 -539.25,1585.8 -98.25,289.2 -1339.25,-10.8 C 3867,6319.2 3603.5,6603 3636,6933 l 55.75,442 1325,-166.7 870.75,-95.8 c 362.5,-62.5 473.75,-282 549.25,-564 l 525.75,-1961"
         style="fill:#3335cf;fill-opacity:1;fill-rule:nonzero;stroke:none"
         transform="matrix(0.13333333,0,0,-0.13333333,0,2666.6667)" />
      <path
         id="path120"
         d="m 5635.75,6048.3 -98.25,289.2 181.25,6.2 c 16.75,-109 -26.5,-230.7 -83,-295.4"
         style="fill:#1b1b43;fill-opacity:1;fill-rule:nonzero;stroke:none"
         transform="matrix(0.13333333,0,0,-0.13333333,0,2666.6667)" />
      <path
         id="path121"
         d="m 17587.5,3927.1 h -15175 v 25 h 15175 v -25"
         style="fill:#1b1b43;fill-opacity:1;fill-rule:nonzero;stroke:none"
         transform="matrix(0.13333333,0,0,-0.13333333,0,2666.6667)" />
    </g>
  </g>
</svg>
